<?xml version="1.0" encoding="UTF-8" standalone="no"?>
<svg
   viewBox="0 0 24 24"
   version="1.1"
   id="svg4"
   sodipodi:docname="samba-exporter.icon.svg"
   inkscape:version="1.1.1 (3bf5ae0d25, 2021-09-20)"
   inkscape:export-filename="/home/tobi/Ramdisk/samba-exporter.icon.png"
   inkscape:export-xdpi="128"
   inkscape:export-ydpi="128"
   xmlns:inkscape="http://www.inkscape.org/namespaces/inkscape"
   xmlns:sodipodi="http://sodipodi.sourceforge.net/DTD/sodipodi-0.dtd"
   xmlns="http://www.w3.org/2000/svg"
   xmlns:svg="http://www.w3.org/2000/svg">
  <defs
     id="defs8" />
  <sodipodi:namedview
     id="namedview6"
     pagecolor="#ffffff"
     bordercolor="#666666"
     borderopacity="1.0"
     inkscape:pageshadow="2"
     inkscape:pageopacity="0.0"
     inkscape:pagecheckerboard="0"
     showgrid="true"
     inkscape:zoom="26.458333"
     inkscape:cx="7.2377954"
     inkscape:cy="12"
     inkscape:window-width="1920"
     inkscape:window-height="1143"
     inkscape:window-x="0"
     inkscape:window-y="27"
     inkscape:window-maximized="1"
     inkscape:current-layer="svg4">
    <inkscape:grid
       type="xygrid"
       id="grid24341" />
  </sodipodi:namedview>
  <rect
     style="opacity:0.99999999;fill:#ffffff;fill-opacity:1;stroke:#000000;stroke-width:0;stroke-miterlimit:5.6"
     id="rect1700"
     width="10"
     height="13"
     x="7"
     y="1"
     ry="0" />
  <path
     d="M 12,0 C 5.373,0 0,5.372 0,12 0,18.627 5.373,24 12,24 18.627,24 24,18.627 24,12 24,5.372 18.627,0 12,0 Z M 8.247,13.374 C 7.527,12.531 7.1,11.459 7.1,10.364 7.1,7.958 8.945,5.856 8.28,4.157 8.928,4.21 9.62,5.524 9.667,7.579 c 0.689,-0.951 0.977,-2.69 0.977,-3.755 0,-1.103 0.727,-2.385 1.454,-2.429 -0.648,1.069 0.168,1.984 0.894,4.256 0.272,0.854 0.237,2.29 0.447,3.201 0.07,-1.892 0.395,-4.652 1.595,-5.605 -0.529,1.2 0.079,2.702 0.494,3.424 0.671,1.164 1.078,2.047 1.078,3.716 -0.0038,1.098549 -0.397146,2.160139 -1.11,2.996 -5.9959542,1.539101 -8.1610622,-0.721066 -7.249,-0.009 z"
     id="path2"
     sodipodi:nodetypes="ssssscsccscccccccc"
     inkscape:export-filename="/home/tobi/Ramdisk/rect845.png"
     inkscape:export-xdpi="128"
     inkscape:export-ydpi="128" />
  <path
     d="m 6.0226684,21.22065 0.612061,-0.80278 c 0.336634,-0.44152 0.63443,-0.83158 0.661769,-0.86678 0.0393,-0.0506 0.04998,0.31422 0.05101,1.74157 7.13e-4,0.99307 -0.01248,1.80527 -0.02931,1.80488 -0.01683,-3.6e-4 -0.315212,-0.39017 -0.663067,-0.8662 l -0.632464,-0.86551 c -0.01261,2.77422 -0.111606,-21.74572 0,-0.14518 z m 1.652566,0.0834 v -0.81728 h 3.4016396 c 3.379563,0 3.402338,-5.5e-4 3.509153,-0.0846 0.106879,-0.0841 0.107513,-0.0879 0.107513,-0.64835 0,-0.49425 -0.0096,-0.57565 -0.07799,-0.6601 l -0.07799,-0.0963 -3.332703,-0.0204 -3.3327026,-0.0204 -0.100363,-0.1167 -0.100363,-0.1167 0.0121,-1.8623 c 0.01099,-1.69105 0.01887,-1.87731 0.08567,-2.02552 0.09964,-0.22105 0.2571896,-0.38106 0.4772836,-0.48475 0.182585,-0.086 0.20583,-0.0866 4.131415,-0.0979 l 3.947797,-0.0114 v 0.81725 0.81725 h -3.427545 c -3.373138,0 -3.42884,10e-4 -3.509152,0.0816 -0.07377,0.0738 -0.08161,0.13602 -0.08161,0.64835 0,0.49714 0.0096,0.57857 0.07798,0.66307 l 0.07798,0.0963 3.074137,0.0204 c 3.04981,0.0202 3.075427,0.0211 3.237352,0.10824 0.213369,0.11483 0.322036,0.23526 0.43665,0.48393 0.09128,0.19803 0.09414,0.24174 0.106422,1.62309 0.01058,1.18994 0.0024,1.45487 -0.05079,1.63772 -0.08319,0.28615 -0.358812,0.59398 -0.667631,0.74563 l -0.232689,0.11426 -3.845787,0.0114 -3.8457866,0.0114 z m 8.9360986,-6.32583 c 0,-1.06435 0.01527,-1.79538 0.0375,-1.79538 0.03203,0 1.156202,1.49313 1.307799,1.73703 0.04801,0.0772 -0.0047,0.16 -0.615797,0.96715 -0.367565,0.48548 -0.682071,0.88356 -0.698902,0.88463 -0.01683,10e-4 -0.0306,-0.80597 -0.0306,-1.79343 z"
     id="path2-3"
     style="fill:#ffffff;fill-opacity:1"
     inkscape:export-filename="/home/tobi/Ramdisk/rect845.png"
     inkscape:export-xdpi="128"
     inkscape:export-ydpi="128" />
</svg>
